<svg width="18" height="18" viewBox="0 0 18 18" fill="none" xmlns="http://www.w3.org/2000/svg">
<path fill-rule="evenodd" clip-rule="evenodd" d="M11.6787 2.22472L8.8724 0.666504L6.06605 2.22472L2.97984 3.10728L2.09728 6.19349L0.539062 8.99984L2.09728 11.8062L2.97984 14.8924L6.06605 15.775L8.8724 17.3332L11.6787 15.775L14.765 14.8924L15.6475 11.8062L17.2057 8.99984L15.6475 6.19349L14.765 3.10728L11.6787 2.22472ZM12.9614 7.15477C13.3231 6.73741 13.278 6.10586 12.8607 5.74415C12.4433 5.38244 11.8117 5.42755 11.45 5.84491L7.8724 9.97296L6.29475 8.1526C5.93304 7.73524 5.30149 7.69013 4.88413 8.05184C4.46678 8.41355 4.42167 9.0451 4.78337 9.46246L7.11671 12.1548C7.30665 12.3739 7.58238 12.4998 7.8724 12.4998C8.16241 12.4998 8.43814 12.3739 8.62809 12.1548L12.9614 7.15477Z" fill="#f9d62d"/>
</svg>
